// Trilhas para os resultados

int starTrek[] = {
  // Introdução de Star Trek
  // Disponível em https://musescore.com/user/10768291/scores/4594271

  NOTE_D4, -8, NOTE_G4, 16, NOTE_C5, -4, 
  NOTE_B4, 8, NOTE_G4, -16, NOTE_E4, -16, NOTE_A4, -16,
  NOTE_D5, 2,
  
};

int starWars[] = {
  // Parte do tema de Star Wars 
  // Disponível em https://musescore.com/cathyd/star-wars-theme
  
  //NOTE_AS5,8, NOTE_A5,8, NOTE_G5,8, NOTE_F6,2, NOTE_C6,4,  
  NOTE_AS5,8, NOTE_A5,8, NOTE_G5,8, NOTE_F6,2, NOTE_C6,4,  
  NOTE_AS5,8, NOTE_A5,8, NOTE_AS5,8, NOTE_G5,2 //, NOTE_C5,8, NOTE_C5,8, NOTE_C5,8,
};

int pacMan[] = {
  // Introdução de PacMan
  // Score available at https://musescore.com/user/85429/scores/107109

  NOTE_B4, 16, NOTE_B5, 16, NOTE_FS5, 16, NOTE_DS5, 16, //1
  NOTE_B5, 32, NOTE_FS5, -16, NOTE_DS5, 8, NOTE_C5, 16,
  NOTE_C6, 16, NOTE_G6, 16, NOTE_E6, 16, NOTE_C6, 32, NOTE_G6, -16, NOTE_E6, 8,

  NOTE_B4, 16,  NOTE_B5, 16,  NOTE_FS5, 16,   NOTE_DS5, 16,  NOTE_B5, 32,  //2
  NOTE_FS5, -16, NOTE_DS5, 8,  NOTE_DS5, 32, NOTE_E5, 32,  NOTE_F5, 32,
  NOTE_F5, 32,  NOTE_FS5, 32,  NOTE_G5, 32,  NOTE_G5, 32, NOTE_GS5, 32,  NOTE_A5, 16, NOTE_B5, 8
};
